<?xml version="1.0" encoding="UTF-8" standalone="no"?>
<svg
   fill="none"
   height="391"
   viewBox="0 0 391 391"
   width="391"
   version="1.1"
   id="svg10"
   sodipodi:docname="ko_fi.svg"
   inkscape:version="1.2 (dc2aedaf03, 2022-05-15)"
   xmlns:inkscape="http://www.inkscape.org/namespaces/inkscape"
   xmlns:sodipodi="http://sodipodi.sourceforge.net/DTD/sodipodi-0.dtd"
   xmlns="http://www.w3.org/2000/svg"
   xmlns:svg="http://www.w3.org/2000/svg">
  <defs
     id="defs14" />
  <sodipodi:namedview
     id="namedview12"
     pagecolor="#ffffff"
     bordercolor="#666666"
     borderopacity="1.0"
     inkscape:showpageshadow="2"
     inkscape:pageopacity="0.0"
     inkscape:pagecheckerboard="0"
     inkscape:deskcolor="#d1d1d1"
     showgrid="false"
     inkscape:zoom="2.1202046"
     inkscape:cx="111.07419"
     inkscape:cy="196.67913"
     inkscape:window-width="1920"
     inkscape:window-height="1009"
     inkscape:window-x="-8"
     inkscape:window-y="-8"
     inkscape:window-maximized="1"
     inkscape:current-layer="svg10" />
  <path
     d="M 31.247286,101.05669 H 327.24729 v 199 H 31.247286 Z"
     fill="#fff"
     id="path2"
     style="display:inline;fill:none;fill-opacity:1;stroke:none;stroke-width:5;stroke-linecap:square;stroke-linejoin:bevel;stroke-dasharray:none;stroke-opacity:1;paint-order:stroke markers fill" />
  <path
     d="m 311.81693,84.320186 c 30.63288,8.509134 52.99975,29.903524 61.02265,58.348344 9.4816,34.1581 -0.12156,67.58684 -26.1352,89.83214 -13.97929,11.91279 -39.50669,20.7866 -60.29329,20.7866 h -9.23849 l -0.97247,8.75225 c -2.30962,23.58246 -13.85773,39.5067 -32.82095,44.97685 -3.52521,1.09404 -30.63288,1.45871 -97.24724,1.45871 l -92.38476,0.12156 -7.293543,-3.40365 c -11.66967,-5.47016 -20.543481,-15.438 -23.947134,-26.98611 -0.486236,-1.94495 -0.972473,-44.49062 -0.972473,-94.57295 0,-98.098154 0,-97.976594 6.321071,-100.529335 1.701827,-0.607795 59.077579,-1.094031 138.941879,-1.094031 133.10716,-0.121559 136.38926,-0.121559 145.01995,2.309622 z"
     fill="#579fbf"
     id="path4"
     style="display:inline;fill:#ffffff;fill-opacity:1;stroke:#000000;stroke-width:12.1559;stroke-linecap:round;stroke-linejoin:round;stroke-dasharray:none;stroke-opacity:1"
     sodipodi:nodetypes="cccscccccccsccc" />
  <path
     d="m 278.02351,168.19593 v 41.33008 h 10.6972 c 18.84165,0 30.38977,-6.44263 37.92643,-21.15127 4.01145,-8.0229 4.25456,-8.99537 4.25456,-21.27284 0,-11.66967 -0.36467,-13.49305 -3.40365,-19.81412 -3.64677,-7.53667 -10.45408,-14.10085 -18.47698,-17.99074 -4.01145,-1.94495 -7.53666,-2.43118 -17.99074,-2.43118 h -13.00682 z"
     fill="#579fbf"
     id="path6"
     style="display:inline;fill:none;fill-opacity:1;stroke:#000000;stroke-width:12.1559;stroke-linecap:round;stroke-linejoin:round;stroke-dasharray:none;stroke-opacity:1" />
  <path
     d="m 173.34293,137.08897 c -8.87381,2.91742 -11.66966,4.49769 -18.59853,10.21096 l -5.71328,4.74081 -5.22704,-4.25457 c -17.26138,-14.10085 -42.54566,-15.68112 -56.768074,-3.52521 -7.050426,6.07795 -9.967357,12.52058 -10.696711,23.58245 -0.607795,9.84629 1.458709,19.20633 6.077467,28.2017 1.337149,2.6743 7.171984,9.72473 12.885259,15.80268 17.869179,18.59854 51.541039,49.47454 53.972219,49.47454 1.45871,0 14.70865,-12.27747 33.18562,-30.75445 27.83703,-27.71546 31.24068,-31.48379 34.76589,-39.02045 4.98392,-10.57564 6.07796,-22.8531 3.03898,-32.09159 -5.95639,-17.74762 -28.44482,-28.44482 -46.9218,-22.36687 z"
     fill="#ff5f5f"
     id="path8"
     style="display:inline;stroke-width:1.21559" />
</svg>
