<svg width="38" height="38" viewBox="0 0 600 400" xmlns="http://www.w3.org/2000/svg">
  <path style="fill:#fff;fill-opacity:1;fill-rule:nonzero;stroke:#000;stroke-width:13;stroke-linecap:round;stroke-linejoin:round;stroke-dasharray:none;stroke-opacity:1" d="M464.7 222.884c-21.905 2.737-39.702.683-39.702.683V89.44h41.754s46.548 13 46.548 62.273c0 45.165-23.272 62.959-48.6 71.171m115.382-94.16C561.821 32.277 465.385 20.292 465.385 20.292H33.42c-14.266 0-16.021 18.833-16.021 18.833s-1.924 172.892-.529 279.07c3.87 57.21 61.058 63.076 61.058 63.076s195.155-.57 282.462-1.14c57.558-10.083 63.339-60.573 62.769-88.188 102.713 5.707 175.182-66.771 156.923-163.219"/>
  <path style="fill:#ff5f5f;fill-opacity:1;fill-rule:nonzero;stroke:none;stroke-width:1.00346" d="M216.99 306.032c4.46 2.246 7.31-.544 7.31-.544s65.27-59.573 94.674-93.882c26.154-30.691 27.858-82.413-17.056-101.739-44.913-19.324-81.866 22.736-81.866 22.736-32.046-35.245-80.546-33.46-102.979-9.608-22.431 23.852-14.598 64.791 2.137 87.576 15.709 21.388 84.757 82.93 95.222 93.338 0 0 .763.798 2.557 2.123"/>
</svg>
