<svg height="38" viewBox="0 0 38 38" width="38" xmlns="http://www.w3.org/2000/svg"><g fill="none" fill-rule="evenodd"><path d="m34.6194245 8.17880011c2.1314244 3.07072649 3.3805755 6.80008579 3.3805755 10.82119989s-1.2491511 7.7504734-3.3805755 10.8211999l-4.9217466-4.9217466c.9664963-1.748848 1.5166078-3.7599079 1.5166078-5.8994533s-.5501115-4.1506053-1.5166078-5.8994533zm-4.7982246-4.79822459-4.9217466 4.92174663c-1.748848-.96649637-3.7599079-1.51660786-5.8994533-1.51660786-6.7457637 0-12.21428571 5.46852201-12.21428571 12.21428571s5.46852201 12.2142857 12.21428571 12.2142857c2.1395454 0 4.1506053-.5501115 5.8994533-1.5166078l4.9217466 4.9217466c-3.0707265 2.1314244-6.8000858 3.3805755-10.8211999 3.3805755-10.49341025 0-19-8.5065898-19-19 0-10.49341025 8.50658975-19 19-19 4.0211141 0 7.7504734 1.24915112 10.8211999 3.38057552z" fill="#7fadf2"/><path d="m34.6194245 8.17880011c2.1314244 3.07072649 3.3805755 6.80008579 3.3805755 10.82119989s-1.2491511 7.7504734-3.3805755 10.8211999l-4.9217466-4.9217466c.9664963-1.748848 1.5166078-3.7599079 1.5166078-5.8994533s-.5501115-4.1506053-1.5166078-5.8994533z" fill="#b8d3f4"/></g></svg>