<svg xmlns="http://www.w3.org/2000/svg" viewBox="0 0 24 24" width="48px" height="48px"><path d="M21.74 19.71c-.53.06-2.08-2.47-2.08-2.47 0 1.47-.75 3.38-2.37 4.77-6.21-1.8-10.58 0-10.58 0-1.62-1.39-2.37-3.3-2.37-4.77 0 0-1.55 2.53-2.08 2.47-.25-.03-.58-1.39.43-4.67l.08-.28c.25-.76.52-1.51.72-1.99l.13-.33.94-2.36c-.01-.03-.02-.56-.02-.84C4.54 4.63 6.7 0 12 0s7.46 4.63 7.46 9.24c0 .27-.01.8-.01.84l.99 2.52.07.17-.06-.17-.03-.1c.01.03.03.07.04.1.27.71.53 1.44.85 2.44 1.01 3.28.68 4.64.43 4.67z"/><path fill="#FFF" d="M14.03 3c.72.03 1.27.91 1.23 1.96-.04 1.06-.65 1.88-1.37 1.85-.72-.03-1.27-.91-1.23-1.96.03-1.06.65-1.88 1.37-1.85zM9.97 3c.72-.03 1.34.79 1.37 1.85.04 1.05-.51 1.93-1.23 1.96-.72.03-1.33-.79-1.37-1.85C8.7 3.91 9.25 3.03 9.97 3z"/><path fill="#FFCA28" d="M7.46 8.29c.19-.43 2.13-.9 4.53-.9h.02c2.4 0 4.34.48 4.53.9.01.02.01.04.01.07 0 .03-.01.05-.02.08-.17.24-2.32 1.41-4.52 1.41h-.02c-2.2 0-4.35-1.17-4.51-1.41a.114.114 0 0 1-.03-.08c0-.03 0-.05.01-.07z"/><path d="M17.79 16.92c-.22 3.67-2.38 5.98-5.72 6.02h-.14c-3.34-.04-5.5-2.35-5.72-6.02-.08-1.35 0-2.5.15-3.43.31.06.63.12.95.17v3.51s1.64.33 3.28.1v-3.22c.49.02.96.04 1.4.03h.02c.27 0 .55 0 .83-.01h.02c1.48-.05 3.14-.26 4.76-.58h.02c.15.93.23 2.08.15 3.43zM7.463 8.293v.001zM10.494 5.804c.31-.041.537-.409.503-.825s-.311-.72-.623-.679c-.31.04-.536.409-.503.824.033.417.312.72.623.68zm3.963-.648c.077.037.219.042.286-.146.035-.095.025-.165-.009-.214-.023-.033-.132-.118-.368-.176-.896-.22-1.329.384-1.392.499-.04.072-.012.176.056.227.067.051.138.037.177-.006.575-.628 1.199-.208 1.25-.184z"/><path fill="#D32F2F" d="M19.45 10.08c-9.02 1.99-14.89 0-14.89 0l-.94 2.36c1.16.78 2.74 1.05 2.74 1.05.31.06.63.12.95.17v3.51s1.64.33 3.28.1v-3.22c.49.02.96.04 1.4.03h.02c.27 0 .55 0 .83-.01H12.96c1.69.02 3.31-.24 4.66-.58h.02c1.23-.31 2.22-.66 2.8-.89h.02l-1.01-2.52z"/><path fill="#FFCA28" d="M19.42 23.62c-.34.58-5.83.37-7.42.19-1.58.18-7.07.39-7.41-.19-.08-.13-.14-.46.29-.78.48-.35 1.23-.64 1.83-.83 0 0 4.37-1.8 10.58 0 .61.19 1.35.48 1.83.83.43.32.37.65.3.78z"/><path fill="#FFF" d="M17.79 16.92c-.22 3.67-2.38 5.98-5.72 6.02h-.14c-3.34-.04-5.5-2.35-5.72-6.02-.08-1.35 0-2.5.15-3.43.31.06.63.12.95.17v3.51s1.64.33 3.28.1v-3.22c.49.02.96.04 1.4.03h.02c.27 0 .55 0 .83-.01H12.96c1.69.02 3.31-.24 4.66-.58h.02c.15.93.23 2.08.15 3.43z"/></svg>