<?xml version="1.0" encoding="iso-8859-1"?>
<!-- Generator: Adobe Illustrator 19.0.0, SVG Export Plug-In . SVG Version: 6.00 Build 0)  -->
<svg version="1.1" id="Layer_1" xmlns="http://www.w3.org/2000/svg" xmlns:xlink="http://www.w3.org/1999/xlink" x="0px" y="0px"
	fill="white" viewBox="0 0 512 512" style="enable-background:new 0 0 512 512;" xml:space="preserve">
<g>
	<g>
		<g>
			<path d="M482.197,374.266l-78.717-45.448c-15.89-9.174-35.829,2.308-35.829,20.686v27.587H151.058
				C87.461,377.09,35.721,325.351,35.721,261.753c0-9.864-7.997-17.86-17.86-17.86c-9.864,0-17.86,7.997-17.86,17.86
				c0,83.294,67.765,151.058,151.058,151.058h216.591v27.587c0,18.347,19.913,29.876,35.829,20.686l78.717-45.447
				C498.086,406.465,498.113,383.456,482.197,374.266z"/>
			<path d="M360.942,99.189H144.349V71.601c0-18.347-19.913-29.876-35.829-20.686L29.803,96.362
				c-15.889,9.173-15.917,32.182,0,41.372l78.717,45.448c15.89,9.174,35.829-2.309,35.829-20.686v-27.587h216.593
				c63.598,0,115.337,51.739,115.337,115.337c0,9.864,7.997,17.86,17.86,17.86c9.864,0,17.86-7.997,17.86-17.86
				C512,166.953,444.235,99.189,360.942,99.189z"/>
		</g>
	</g>
</g>
<g>
</g>
<g>
</g>
<g>
</g>
<g>
</g>
<g>
</g>
<g>
</g>
<g>
</g>
<g>
</g>
<g>
</g>
<g>
</g>
<g>
</g>
<g>
</g>
<g>
</g>
<g>
</g>
<g>
</g>
</svg>
