<svg width="512" height="512" xmlns="http://www.w3.org/2000/svg" xml:space="preserve" fill="white" version="1.1">

 <g>
  <title>Layer 1</title>
  <g id="svg_1">
   <g id="svg_2">
    <g id="svg_3">
     <path id="svg_4" d="m482.197,374.266l-78.717,-45.448c-15.89,-9.174 -35.829,2.308 -35.829,20.686l0,27.587l-216.593,0c-63.597,-0.001 -115.337,-51.74 -115.337,-115.338c0,-9.864 -7.997,-17.86 -17.86,-17.86c-9.864,0 -17.86,7.997 -17.86,17.86c0,83.294 67.765,151.058 151.058,151.058l216.591,0l0,27.587c0,18.347 19.913,29.876 35.829,20.686l78.717,-45.447c15.89,-9.172 15.917,-32.181 0.001,-41.371z"/>
     <path id="svg_5" d="m360.942,99.189l-216.593,0l0,-27.588c0,-18.347 -19.913,-29.876 -35.829,-20.686l-78.717,45.447c-15.889,9.173 -15.917,32.182 0,41.372l78.717,45.448c15.89,9.174 35.829,-2.309 35.829,-20.686l0,-27.587l216.593,0c63.598,0 115.337,51.739 115.337,115.337c0,9.864 7.997,17.86 17.86,17.86c9.864,0 17.86,-7.997 17.86,-17.86c0.001,-83.293 -67.764,-151.057 -151.057,-151.057z"/>
    </g>
   </g>
  </g>
  <g id="svg_6"/>
  <g id="svg_7"/>
  <g id="svg_8"/>
  <g id="svg_9"/>
  <g id="svg_10"/>
  <g id="svg_11"/>
  <g id="svg_12"/>
  <g id="svg_13"/>
  <g id="svg_14"/>
  <g id="svg_15"/>
  <g id="svg_16"/>
  <g id="svg_17"/>
  <g id="svg_18"/>
  <g id="svg_19"/>
  <g id="svg_20"/>
  <g id="svg_24">
   <path id="svg_21" d="m118,511.5c-65.19337,0 -118,-52.80663 -118,-118c0,-65.19337 52.80663,-118 118,-118c65.19337,0 118,52.80663 118,118c0,65.19337 -52.80663,118 -118,118z" opacity="undefined" stroke-width="0" stroke="#000" fill="#fff"/>
   <text font-weight="bold" xml:space="preserve" text-anchor="start" font-family="Noto Sans JP" font-size="250" id="svg_23" y="470" x="54.64063" stroke-width="0" stroke="#000" fill="#000000">1</text>
  </g>
 </g>
</svg>