<?xml version="1.0" encoding="iso-8859-1"?>
<!-- Generator: Adobe Illustrator 18.0.0, SVG Export Plug-In . SVG Version: 6.00 Build 0)  -->
<!DOCTYPE svg PUBLIC "-//W3C//DTD SVG 1.1//EN" "http://www.w3.org/Graphics/SVG/1.1/DTD/svg11.dtd">
<svg version="1.1" id="Capa_1" xmlns="http://www.w3.org/2000/svg" xmlns:xlink="http://www.w3.org/1999/xlink" x="0px" y="0px"
	 viewBox="0 0 230.055 230.055" style="enable-background:new 0 0 230.055 230.055;" xml:space="preserve">
<path fill="white" d="M199.419,124.497c-3.516-3.515-9.213-3.515-12.729,0c-3.515,3.515-3.515,9.213,0,12.728l12.637,12.636h-8.406
	c-8.177,0-16.151-2.871-22.453-8.083l-32.346-26.751l32.345-26.751c6.303-5.212,14.277-8.083,22.454-8.083h8.406L186.69,92.83
	c-3.515,3.515-3.515,9.213,0,12.728c1.758,1.757,4.061,2.636,6.364,2.636s4.606-0.879,6.364-2.636l28-28
	c3.515-3.515,3.515-9.213,0-12.728l-28-28c-3.516-3.515-9.213-3.515-12.729,0c-3.515,3.515-3.515,9.213,0,12.728l12.637,12.636
	h-8.406c-12.354,0-24.403,4.337-33.926,12.211L122,103.348L82.564,70.733c-6.658-5.507-15.084-8.54-23.724-8.54H9
	c-4.971,0-9,4.029-9,9s4.029,9,9,9h49.841c4.462,0,8.813,1.566,12.252,4.411l36.786,30.423L71.094,145.45
	c-3.439,2.844-7.791,4.411-12.253,4.411H9c-4.971,0-9,4.029-9,9s4.029,9,9,9h49.841c8.64,0,17.065-3.033,23.725-8.54L122,126.707
	l34.996,28.943c9.521,7.875,21.57,12.211,33.925,12.211h8.406l-12.637,12.636c-3.515,3.515-3.515,9.213,0,12.728
	c1.758,1.757,4.061,2.636,6.364,2.636s4.606-0.879,6.364-2.636l28-28c3.515-3.515,3.515-9.213,0-12.728L199.419,124.497z"/>
<g>
</g>
<g>
</g>
<g>
</g>
<g>
</g>
<g>
</g>
<g>
</g>
<g>
</g>
<g>
</g>
<g>
</g>
<g>
</g>
<g>
</g>
<g>
</g>
<g>
</g>
<g>
</g>
<g>
</g>
</svg>
