<?xml version="1.0" encoding="iso-8859-1"?>
<!-- Generator: Adobe Illustrator 18.0.0, SVG Export Plug-In . SVG Version: 6.00 Build 0)  -->
<!DOCTYPE svg PUBLIC "-//W3C//DTD SVG 1.1//EN" "http://www.w3.org/Graphics/SVG/1.1/DTD/svg11.dtd">
<svg version="1.1" id="Capa_1" xmlns="http://www.w3.org/2000/svg" xmlns:xlink="http://www.w3.org/1999/xlink" x="0px" y="0px"
	 viewBox="0 0 60 60" style="enable-background:new 0 0 60 60;" xml:space="preserve">
<g>
	<path fill="white" d="M42,12H20.414l7.293-7.293c0.391-0.391,0.391-1.023,0-1.414s-1.023-0.391-1.414,0l-8.999,8.999
		c-0.093,0.092-0.166,0.203-0.217,0.326c-0.101,0.244-0.101,0.52,0,0.764c0.051,0.123,0.124,0.234,0.217,0.326l8.999,8.999
		C26.488,22.902,26.744,23,27,23s0.512-0.098,0.707-0.293c0.391-0.391,0.391-1.023,0-1.414L20.414,14H42c8.822,0,16,7.178,16,16
		c0,4.252-1.668,8.264-4.696,11.295c-0.391,0.391-0.391,1.024,0,1.414c0.195,0.195,0.451,0.293,0.707,0.293s0.512-0.098,0.707-0.293
		C58.124,39.3,60,34.786,60,30C60,20.075,51.925,12,42,12z"/>
	<path fill="white" d="M35.707,37.293c-0.391-0.391-1.023-0.391-1.414,0s-0.391,1.023,0,1.414L41.586,46H18C9.178,46,2,38.822,2,30
		c0-3.783,1.359-7.46,3.828-10.354c0.358-0.421,0.309-1.052-0.111-1.41c-0.419-0.359-1.052-0.31-1.41,0.111
		C1.529,21.604,0,25.741,0,30c0,9.925,8.075,18,18,18h23.586l-7.293,7.293c-0.391,0.391-0.391,1.023,0,1.414
		C34.488,56.902,34.744,57,35,57s0.512-0.098,0.707-0.293l9-9c0.391-0.391,0.391-1.023,0-1.414L35.707,37.293z"/>
</g>
<g>
</g>
<g>
</g>
<g>
</g>
<g>
</g>
<g>
</g>
<g>
</g>
<g>
</g>
<g>
</g>
<g>
</g>
<g>
</g>
<g>
</g>
<g>
</g>
<g>
</g>
<g>
</g>
<g>
</g>
</svg>
