<svg width="60" height="60" xmlns="http://www.w3.org/2000/svg" xml:space="preserve" version="1.1">

 <g>
  <title>Layer 1</title>
  <g id="svg_1">
   <path id="svg_2" d="m42,12l-21.586,0l7.293,-7.293c0.391,-0.391 0.391,-1.023 0,-1.414s-1.023,-0.391 -1.414,0l-8.999,8.999c-0.093,0.092 -0.166,0.203 -0.217,0.326c-0.101,0.244 -0.101,0.52 0,0.764c0.051,0.123 0.124,0.234 0.217,0.326l8.999,8.999c0.195,0.195 0.451,0.293 0.707,0.293s0.512,-0.098 0.707,-0.293c0.391,-0.391 0.391,-1.023 0,-1.414l-7.293,-7.293l21.586,0c8.822,0 16,7.178 16,16c0,4.252 -1.668,8.264 -4.696,11.295c-0.391,0.391 -0.391,1.024 0,1.414c0.195,0.195 0.451,0.293 0.707,0.293s0.512,-0.098 0.707,-0.293c3.406,-3.409 5.282,-7.923 5.282,-12.709c0,-9.925 -8.075,-18 -18,-18z" fill="white"/>
   <path id="svg_3" d="m35.707,37.293c-0.391,-0.391 -1.023,-0.391 -1.414,0s-0.391,1.023 0,1.414l7.293,7.293l-23.586,0c-8.822,0 -16,-7.178 -16,-16c0,-3.783 1.359,-7.46 3.828,-10.354c0.358,-0.421 0.309,-1.052 -0.111,-1.41c-0.419,-0.359 -1.052,-0.31 -1.41,0.111c-2.778,3.257 -4.307,7.394 -4.307,11.653c0,9.925 8.075,18 18,18l23.586,0l-7.293,7.293c-0.391,0.391 -0.391,1.023 0,1.414c0.195,0.195 0.451,0.293 0.707,0.293s0.512,-0.098 0.707,-0.293l9,-9c0.391,-0.391 0.391,-1.023 0,-1.414l-9,-9z" fill="white"/>
  </g>
  <g id="svg_4"/>
  <g id="svg_5"/>
  <g id="svg_6"/>
  <g id="svg_7"/>
  <g id="svg_8"/>
  <g id="svg_9"/>
  <g id="svg_10"/>
  <g id="svg_11"/>
  <g id="svg_12"/>
  <g id="svg_13"/>
  <g id="svg_14"/>
  <g id="svg_15"/>
  <g id="svg_16"/>
  <g id="svg_17"/>
  <g id="svg_18"/>
  <ellipse stroke="#000" stroke-width="0" ry="21" rx="22" id="svg_19" cy="30" cx="30" fill="#fff"/>
  <text transform="matrix(1 0 0 1 0 0)" style="cursor: move;" font-weight="bold" xml:space="preserve" text-anchor="start" font-family="'Inter'" font-size="48" id="svg_21" y="44" x="18" stroke-width="0" stroke="#fff" fill="#000000">1</text>
 </g>
</svg>