<?xml version="1.0" encoding="UTF-8" standalone="no"?>
<svg
   width="24px"
   height="24px"
   viewBox="0 0 24 24"
   version="1.1"
   id="svg4"
   sodipodi:docname="style-svgrepo-com.svg"
   inkscape:version="1.2 (dc2aedaf03, 2022-05-15)"
   xmlns:inkscape="http://www.inkscape.org/namespaces/inkscape"
   xmlns:sodipodi="http://sodipodi.sourceforge.net/DTD/sodipodi-0.dtd"
   xmlns="http://www.w3.org/2000/svg"
   xmlns:svg="http://www.w3.org/2000/svg">
  <defs
     id="defs8" />
  <sodipodi:namedview
     id="namedview6"
     pagecolor="#ffffff"
     bordercolor="#000000"
     borderopacity="0.25"
     inkscape:showpageshadow="2"
     inkscape:pageopacity="0.0"
     inkscape:pagecheckerboard="0"
     inkscape:deskcolor="#d1d1d1"
     showgrid="false"
     inkscape:zoom="36.541667"
     inkscape:cx="8.031927"
     inkscape:cy="12.054732"
     inkscape:window-width="1920"
     inkscape:window-height="1044"
     inkscape:window-x="0"
     inkscape:window-y="0"
     inkscape:window-maximized="1"
     inkscape:current-layer="svg4" />
  <path
     d="M23.14.93l-.07-.07A2.926 2.926 0 0 0 20.98 0a2.886 2.886 0 0 0-2.08.86L8.858 10.9a3.04 3.04 0 0 0-.53.72 7.793 7.793 0 0 0-4.1 1.621c-.191.144-.36.316-.5.51a6.08 6.08 0 0 0-.98 1.961c-.25.69-.59 1.631-1.22 3-.42.91-.75 1.541-.98 1.981a3.092 3.092 0 0 0-.54 1.631c.014.206.08.406.19.58a2.64 2.64 0 0 0 2.23 1.07 10.462 10.462 0 0 0 8.161-3.371c.378-.44.692-.932.93-1.461a7.882 7.882 0 0 0 .69-3.361.142.142 0 0 1 .02-.04c.325-.144.62-.347.87-.6L23.14 5.1A2.888 2.888 0 0 0 24 3.021 2.927 2.927 0 0 0 23.14.93zM9.7 18.317c-.17.368-.388.711-.65 1.02a8.393 8.393 0 0 1-6.891 2.6c.05-.1.11-.21.17-.32.24-.46.58-1.11 1.02-2.061a39.058 39.058 0 0 0 1.28-3.151c.14-.491.355-.957.64-1.381.062-.08.133-.154.21-.22a5.221 5.221 0 0 1 2.59-1.14c.121.537.396 1.027.79 1.411l.07.07c.35.357.788.616 1.27.75a5.614 5.614 0 0 1-.499 2.422zM21.73 3.691L11.678 13.735a.947.947 0 0 1-.67.28.983.983 0 0 1-.67-.28l-.07-.07a.948.948 0 0 1 0-1.34L20.309 2.271c.18-.173.42-.27.671-.271a.937.937 0 0 1 .67.27l.08.08c.36.374.36.967 0 1.341z"
     fill="#494c4e"
     fill-rule="evenodd"
     id="path2"
     style="fill:#000000;fill-opacity:1" />
</svg>
