<?xml version="1.0" encoding="UTF-8" standalone="no"?>
<!-- Created with Inkscape (http://www.inkscape.org/) -->

<svg
   version="1.1"
   id="svg316"
   width="1000"
   height="1000"
   viewBox="0 0 1000 1000"
   sodipodi:docname="atreus.svg"
   inkscape:version="1.2 (dc2aedaf03, 2022-05-15)"
   xmlns:inkscape="http://www.inkscape.org/namespaces/inkscape"
   xmlns:sodipodi="http://sodipodi.sourceforge.net/DTD/sodipodi-0.dtd"
   xmlns="http://www.w3.org/2000/svg"
   xmlns:svg="http://www.w3.org/2000/svg">
  <defs
     id="defs320">
    <inkscape:path-effect
       effect="bspline"
       id="path-effect21501"
       is_visible="true"
       lpeversion="1"
       weight="33.333333"
       steps="2"
       helper_size="0"
       apply_no_weight="true"
       apply_with_weight="true"
       only_selected="false" />
    <inkscape:path-effect
       effect="spiro"
       id="path-effect21497"
       is_visible="true"
       lpeversion="1" />
    <inkscape:path-effect
       effect="spiro"
       id="path-effect21277"
       is_visible="true"
       lpeversion="1" />
    <inkscape:path-effect
       effect="spiro"
       id="path-effect21273"
       is_visible="true"
       lpeversion="1" />
  </defs>
  <sodipodi:namedview
     id="namedview318"
     pagecolor="#ffffff"
     bordercolor="#000000"
     borderopacity="0.25"
     inkscape:showpageshadow="2"
     inkscape:pageopacity="0.0"
     inkscape:pagecheckerboard="0"
     inkscape:deskcolor="#d1d1d1"
     showgrid="true"
     inkscape:zoom="1"
     inkscape:cx="471.5"
     inkscape:cy="396.5"
     inkscape:window-width="1920"
     inkscape:window-height="1044"
     inkscape:window-x="0"
     inkscape:window-y="0"
     inkscape:window-maximized="1"
     inkscape:current-layer="g322" />
  <g
     inkscape:groupmode="layer"
     inkscape:label="Image"
     id="g322">
    <path
       style="display:inline;opacity:1;fill:#ff2654;fill-opacity:1;fill-rule:nonzero;stroke-width:0.7;stroke-dasharray:none"
       d="M 43.442873,500 C 44.729355,381.57807 94.612705,264.40544 179.08104,181.39635 263.54937,98.387264 381.57364,50.553165 500,51.331533 617.43261,52.10337 733.85918,100.6317 817.07592,183.49296 900.29266,266.35423 949.31889,382.57178 950.59458,500 951.88811,619.07066 904.01174,737.93437 820.54876,822.86626 737.08578,907.79814 619.07511,957.74081 500,958.52344 379.93115,959.3126 260.30587,910.07147 175.5853,824.98577 90.86473,739.90007 42.138548,620.06436 43.442873,500 Z"
       id="path21271"
       inkscape:path-effect="#path-effect21273"
       inkscape:original-d="M 43.442873,500 C -108.74384,347.15785 347.81529,200.88869 500,51.331533 652.18471,-98.225623 800.39739,350.44484 950.59458,500 1100.7918,649.55516 650.19919,805.68329 500,958.52344 349.80081,1111.3636 195.62958,652.84215 43.442873,500 Z" />
    <path
       style="display:inline;opacity:1;fill:#161616;fill-opacity:1;fill-rule:nonzero;stroke-width:7;stroke-dasharray:none"
       d="M 810.53125,500 C 809.3521,419.22061 775.44998,339.38827 718.14176,282.4456 660.83353,225.50293 580.78531,192.11226 500,191.45312 418.36315,190.78703 336.94829,223.58389 278.56844,280.65237 220.18858,337.72085 185.55094,418.36913 184.35937,500 183.14556,583.1542 216.70905,666.27439 275.32351,725.26964 333.93798,784.2649 416.83971,818.36602 500,817.6875 582.30875,817.01593 663.82438,782.31258 721.36031,723.45004 778.89624,664.5875 811.73263,582.30273 810.53125,500 Z"
       id="path21495"
       inkscape:path-effect="#path-effect21497"
       inkscape:original-d="M 810.53125,500 C 914.04066,394.10317 603.51142,294.30308 500,191.45312 396.48858,88.603166 289.57392,397.15204 184.35937,500 79.144833,602.84796 394.78746,711.79267 500,817.6875 605.21254,923.58233 707.02183,605.89683 810.53125,500 Z" />
    <path
       style="display:inline;opacity:1;fill:#ff2654;fill-opacity:1;fill-rule:nonzero;stroke-width:7;stroke-dasharray:none"
       d="M 759.34429,500 C 758.19835,432.60151 729.83099,366.05221 681.99531,318.55888 634.15963,271.06554 567.40514,243.17636 500,242.53125 431.75952,241.87814 363.66577,269.1855 314.77936,316.80177 265.89296,364.41804 236.80347,431.76626 235.64333,500 234.45795,569.71803 262.50003,639.47618 311.6155,688.97042 360.73098,738.46466 430.27509,767.04231 500,766.375 568.88957,765.71568 637.07217,736.5466 685.12903,687.18319 733.18589,637.81977 760.51546,568.88277 759.34429,500 Z"
       id="path21275"
       inkscape:path-effect="#path-effect21277"
       inkscape:original-d="M 759.34429,500 C 845.79139,411.20733 586.4491,328.35517 500,242.53125 413.5509,156.70733 323.76322,414.17808 235.64333,500 147.52345,585.82192 411.88211,677.58433 500,766.375 588.11789,855.16566 672.8972,588.79267 759.34429,500 Z" />
    <path
       style="display:inline;opacity:1;fill:#161616;fill-opacity:1;fill-rule:nonzero;stroke-width:7;stroke-dasharray:none"
       d="m 425.88442,448.01182 c -0.0883,28.34345 0.0296,84.32273 0.31267,112.73951 0.2831,28.41677 0.73019,29.26962 1.17791,30.12367 0,0 1.625,2.25 1.625,2.25 0,0 2.0625,1 2.0625,1 0,0 6.1875,0.625 6.1875,0.625 48.08333,-27.91667 96.16698,-55.83352 120.646,-70.22927 24.47902,-14.39575 25.354,-15.27073 25.9164,-16.08294 0.56241,-0.81221 0.8124,-1.56219 0.91669,-2.43698 0.10429,-0.87479 0.0626,-1.87477 -0.16633,-2.89553 -0.22895,-1.02076 -0.64561,-2.0624 -1.16617,-2.87503 -0.52057,-0.81263 -1.14556,-1.39595 -1.66634,-1.83354 -0.52079,-0.43759 -0.93744,-0.72924 -24.80769,-14.62209 -23.87026,-13.89285 -71.19225,-41.38567 -95.50189,-55.36818 -24.30965,-13.98252 -25.60599,-14.45391 -26.90262,-14.51314 -1.29664,-0.0592 -2.59298,0.29431 -3.74228,0.82467 -1.1493,0.53036 -2.15101,1.23745 -2.82884,1.85636 -0.67782,0.61891 -1.03137,1.14923 -1.35549,1.76809 -0.32412,0.61886 -0.61874,1.32595 -0.70702,29.6694 z"
       id="path21499"
       inkscape:path-effect="#path-effect21501"
       inkscape:original-d="m 425.67828,420.37498 c 0.11885,55.98029 0.2367,111.95957 0.35355,167.93786 0.44873,0.85507 1.34317,2.56216 1.34317,2.56216 0,0 1.625,2.25 1.625,2.25 0,0 2.0625,1 2.0625,1 0,0 6.1875,0.625 6.1875,0.625 0,0 96.16767,-55.83233 144.25,-83.75 0.87602,-0.87402 1.751,-1.749 2.625,-2.625 0.251,-0.74902 0.501,-1.499 0.75,-2.25 -0.0407,-0.99902 -0.0823,-1.999 -0.125,-3 -0.41568,-1.04069 -0.83233,-2.08233 -1.25,-3.125 -0.62401,-0.58235 -1.249,-1.16567 -1.875,-1.75 -0.41568,-0.29067 -0.83233,-0.58233 -1.25,-0.875 -47.32288,-27.49292 -94.64487,-54.98573 -141.9688,-82.4801 -1.29539,-0.47041 -2.59172,-0.94181 -3.88908,-1.41421 -1.29539,0.35456 -2.59173,0.70811 -3.88909,1.06066 -1.00076,0.70812 -2.00247,1.41521 -3.00521,2.12132 -0.35256,0.53134 -0.7061,1.06166 -1.06066,1.59099 -0.29363,0.70812 -0.58825,1.41521 -0.88388,2.12132 z" />
  </g>
</svg>
