<?xml version="1.0" encoding="UTF-8" standalone="no"?>
<!DOCTYPE svg PUBLIC "-//W3C//DTD SVG 1.1//EN" "http://www.w3.org/Graphics/SVG/1.1/DTD/svg11.dtd">
<svg width="100%" height="100%" viewBox="0 0 34 34" version="1.1" xmlns="http://www.w3.org/2000/svg" xmlns:xlink="http://www.w3.org/1999/xlink" xml:space="preserve" xmlns:serif="http://www.serif.com/" style="fill-rule:evenodd;clip-rule:evenodd;stroke-linejoin:round;stroke-miterlimit:2;">
    <g transform="matrix(-0.13004,0,0,0.13004,130.354,-21.1046)">
        <g transform="matrix(7.11542e-17,1.16204,-1.00804,6.1725e-17,1181.95,-435.575)">
            <path d="M620.408,312.185C621.766,309.468 624.28,307.794 627,307.794C629.72,307.794 632.234,309.468 633.592,312.185C643.701,332.402 662.969,370.939 673.563,392.126C675.098,395.195 675.096,398.975 673.558,402.043C672.021,405.111 669.181,407 666.107,407C645.499,407 608.501,407 587.893,407C584.819,407 581.979,405.111 580.442,402.043C578.904,398.975 578.902,395.195 580.437,392.126C591.031,370.939 610.299,332.402 620.408,312.185Z" style="fill:white;"/>
        </g>
        <g transform="matrix(7.11542e-17,1.16204,-1.00804,6.1725e-17,1281.96,-435.575)">
            <path d="M620.408,312.185C621.766,309.468 624.28,307.794 627,307.794C629.72,307.794 632.234,309.468 633.592,312.185C643.701,332.402 662.969,370.939 673.563,392.126C675.098,395.195 675.096,398.975 673.558,402.043C672.021,405.111 669.181,407 666.107,407C645.499,407 608.501,407 587.893,407C584.819,407 581.979,405.111 580.442,402.043C578.904,398.975 578.902,395.195 580.437,392.126C591.031,370.939 610.299,332.402 620.408,312.185Z" style="fill:white;"/>
        </g>
    </g>
</svg>
