<?xml version="1.0" encoding="UTF-8" standalone="no"?>
<!DOCTYPE svg PUBLIC "-//W3C//DTD SVG 1.1//EN" "http://www.w3.org/Graphics/SVG/1.1/DTD/svg11.dtd">
<svg width="100%" height="100%" viewBox="0 0 577 205" version="1.1" xmlns="http://www.w3.org/2000/svg" xmlns:xlink="http://www.w3.org/1999/xlink" xml:space="preserve" xmlns:serif="http://www.serif.com/" style="fill-rule:evenodd;clip-rule:evenodd;stroke-linejoin:round;stroke-miterlimit:2;">
    <g transform="matrix(0.788347,0,0,0.788347,-131.654,-154.131)">
        <g id="Release.afdesign" transform="matrix(0.260038,0,0,0.260038,297.279,325.53)">
            <g transform="matrix(1,0,0,1,-501,-500)">
                <path d="M501,21C765.367,21 980,235.633 980,500C980,764.367 765.367,979 501,979C236.633,979 22,764.367 22,500C22,235.633 236.633,21 501,21ZM501,169C683.684,169 832,317.316 832,500C832,682.684 683.684,831 501,831C318.316,831 170,682.684 170,500C170,317.316 318.316,169 501,169Z" style="fill:rgb(255,38,84);"/>
                <path d="M501,224C653.053,224 776.5,347.447 776.5,499.5C776.5,651.553 653.053,775 501,775C348.947,775 225.5,651.553 225.5,499.5C225.5,347.447 348.947,224 501,224ZM589.165,492.207C595.163,495.672 595.163,504.328 589.165,507.793L439.502,594.256C433.502,597.722 426,593.392 426,586.463L426,413.537C426,406.608 433.502,402.278 439.502,405.744L589.165,492.207Z" style="fill:rgb(255,38,84);"/>
            </g>
        </g>
        <g transform="matrix(10.0544,0,0,10.0544,-4614.58,-2607.36)">
            <text x="505.982px" y="297.612px" style="font-family:'Inter-Bold', 'Inter';font-weight:700;font-size:16px;fill:rgb(235,235,235);">Cider</text>
        </g>
    </g>
</svg>
