<?xml version="1.0" encoding="UTF-8" standalone="no"?>
<!DOCTYPE svg PUBLIC "-//W3C//DTD SVG 1.1//EN" "http://www.w3.org/Graphics/SVG/1.1/DTD/svg11.dtd">
<svg width="100%" height="100%" viewBox="0 0 104 139" version="1.1" xmlns="http://www.w3.org/2000/svg" xmlns:xlink="http://www.w3.org/1999/xlink" xml:space="preserve" xmlns:serif="http://www.serif.com/" style="fill-rule:evenodd;clip-rule:evenodd;stroke-linejoin:round;stroke-miterlimit:2;">
    <g transform="matrix(1,0,0,1,-339.137,-234.806)">
        <path d="M381,245.272C381,239.496 376.31,234.806 370.534,234.806L349.603,234.806C343.826,234.806 339.137,239.496 339.137,245.272L339.137,362.84C339.137,368.616 343.826,373.306 349.603,373.306L370.534,373.306C376.31,373.306 381,368.616 381,362.84L381,245.272Z" style="fill:white;"/>
        <g transform="matrix(1,0,0,1,61.8631,0)">
            <path d="M381,245.272C381,239.496 376.31,234.806 370.534,234.806L349.603,234.806C343.826,234.806 339.137,239.496 339.137,245.272L339.137,362.84C339.137,368.616 343.826,373.306 349.603,373.306L370.534,373.306C376.31,373.306 381,368.616 381,362.84L381,245.272Z" style="fill:white;"/>
        </g>
    </g>
</svg>
