<?xml version="1.0" encoding="UTF-8" standalone="no"?>
<!DOCTYPE svg PUBLIC "-//W3C//DTD SVG 1.1//EN" "http://www.w3.org/Graphics/SVG/1.1/DTD/svg11.dtd">
<svg width="100%" height="100%" viewBox="0 0 28 64" version="1.1" xmlns="http://www.w3.org/2000/svg" xmlns:xlink="http://www.w3.org/1999/xlink" xml:space="preserve" xmlns:serif="http://www.serif.com/" style="fill-rule:evenodd;clip-rule:evenodd;stroke-linejoin:round;stroke-miterlimit:2;">
    <g transform="matrix(1,0,0,1,-11,-10)">
        <path d="M39,12.24C39,11.004 37.996,10 36.76,10L13.24,10C12.004,10 11,11.004 11,12.24L11,71.76C11,72.996 12.004,74 13.24,74L36.76,74C37.996,74 39,72.996 39,71.76L39,12.24Z" style="fill:rgb(108,108,108);fill-opacity:0.43;"/>
        <g transform="matrix(0.714286,0,0,1,7.14286,0)">
            <rect x="18" y="41" width="14" height="2" style="fill:rgb(231,231,231);fill-opacity:0.77;"/>
        </g>
        <g transform="matrix(0.714286,0,0,1,7.14286,-5)">
            <rect x="18" y="41" width="14" height="2" style="fill:rgb(231,231,231);fill-opacity:0.77;"/>
        </g>
        <g transform="matrix(0.714286,0,0,1,7.14286,5)">
            <rect x="18" y="41" width="14" height="2" style="fill:rgb(231,231,231);fill-opacity:0.77;"/>
        </g>
        <g transform="matrix(0.571429,0,0,0.6,10.7143,10.4)">
            <path d="M25,26L32,36L18,36L25,26Z" style="fill:rgb(231,231,231);fill-opacity:0.77;"/>
        </g>
        <g transform="matrix(0.571429,0,0,-0.6,10.7143,73.6)">
            <path d="M25,26L32,36L18,36L25,26Z" style="fill:rgb(231,231,231);fill-opacity:0.77;"/>
        </g>
    </g>
</svg>
