<svg width="9" height="9" viewBox="0 0 9 9" xmlns="http://www.w3.org/2000/svg" class="glyph" aria-hidden="true">
  <path
    d="M1.59 8.991h5.82c1.043 0 1.582-.538 1.582-1.566v-5.85C8.992.547 8.453.008 7.41.008H1.59C.552.008.008.542.008 1.575v5.85c0 1.028.544 1.566 1.582 1.566zm1.812-2.273c-.332 0-.505-.211-.505-.553V2.753c0-.341.173-.553.505-.553h2.264c.245 0 .408.14.408.385 0 .235-.163.384-.408.384H3.854v1.106h1.71c.226 0 .38.125.38.355 0 .221-.154.346-.38.346h-1.71V5.95h1.812c.245 0 .408.14.408.385 0 .235-.163.384-.408.384H3.402z"></path>
</svg>
