<?xml version="1.0" encoding="UTF-8" standalone="no"?>
<!DOCTYPE svg PUBLIC "-//W3C//DTD SVG 1.1//EN" "http://www.w3.org/Graphics/SVG/1.1/DTD/svg11.dtd">
<svg width="100%" height="100%" viewBox="0 0 214 214" version="1.1" xmlns="http://www.w3.org/2000/svg"
     xml:space="preserve"
     style="fill-rule:evenodd;clip-rule:evenodd;stroke-linejoin:round;stroke-miterlimit:2;">
    <g transform="matrix(1,0,0,1,-79.4309,9.53659)">
        <path
          d="M250.163,76.146C250.163,52.589 231.037,33.463 207.48,33.463L122.114,33.463C98.556,33.463 79.431,52.589 79.431,76.146L79.431,161.512C79.431,185.07 98.556,204.195 122.114,204.195L207.48,204.195C231.037,204.195 250.163,185.07 250.163,161.512L250.163,76.146ZM235.163,83.646C235.163,64.228 219.398,48.463 199.98,48.463L129.614,48.463C110.196,48.463 94.431,64.228 94.431,83.646L94.431,154.012C94.431,173.43 110.196,189.195 129.614,189.195L199.98,189.195C219.398,189.195 235.163,173.43 235.163,154.012L235.163,83.646Z"
          style="fill:currentColor;"/>
    </g>
  <g transform="matrix(0.906286,0,0,0.906286,-20.9871,-22.3274)">
        <path
          d="M250.163,76.146C250.163,52.589 231.037,33.463 207.48,33.463L122.114,33.463C98.556,33.463 79.431,52.589 79.431,76.146L79.431,161.512C79.431,185.07 98.556,204.195 122.114,204.195L207.48,204.195C231.037,204.195 250.163,185.07 250.163,161.512L250.163,76.146Z"
          style="fill:white;"/>
    </g>
  <g transform="matrix(0.333526,0,0,0.333526,43.0167,0)">
        <path
          d="M511.8,130.7C511.8,115 510.5,99.3 506.7,84C500,56 484,34.7 460.2,19C448,11 434.5,6.1 420.1,3.5C409.1,1.5 397.9,0.6 386.8,0.3L384.1,0L127.6,0C124.4,0.3 121.1,0.4 117.9,0.6C102,1.5 86.2,3.2 71.1,9.2C42.7,20.4 22.1,40.1 10.1,68.4C5.9,78 3.8,88.2 2.3,98.5C1.1,106.8 0.4,115.3 0.1,123.7L-0.1,125.7L-0.1,386.4C0.1,389.4 0.2,392.4 0.4,395.4C1.5,412.8 3.7,430.1 11.1,446.1C24.9,476.4 48.2,496.3 80.1,505.8C89,508.6 98.3,509.8 107.7,510.6C119.5,511.8 131.4,511.9 143.2,511.9L378.5,511.9C389.7,511.9 400.8,511.2 412,509.7C429.6,507.5 446.1,502.3 461,492.5C478.9,480.7 492.4,465 501.1,445.4C505.1,436.4 507.3,426.8 509,417.2C511.4,402.8 511.9,388.2 511.9,373.6C511.8,292.6 511.9,211.6 511.8,130.6L511.8,130.7ZM374.8,93.4L374.8,337.6C374.8,346.5 373.6,355.3 369.6,363.3C363.4,375.9 353.4,383.8 340,387.6C332.6,389.8 324.9,390.9 317.2,391.3C297,392.3 279.4,378.6 275.8,358.6C272.7,342.1 280.6,323.9 298,315.4C304.8,312.1 312.2,310.1 319.7,308.6C327.8,306.9 335.9,305.3 343.9,303.4C349.8,302.1 353.6,298.5 354.8,292.4L355.2,288.3L355.2,172.1L354.6,168.2C353.8,165 351.4,163 348.1,163.2C344.7,163.4 341.4,163.9 338,164.6C321.7,167.8 305.5,171 289.3,174.3L210.4,190.2L209.3,190.5C203.4,192.2 201.3,194.8 201,201L201,203.7C200.9,259.2 201,314.7 200.9,370.2C200.9,379.2 199.9,388 196.3,396.4C190.4,410.1 179.9,418.7 165.7,422.7C158.2,424.9 150.5,426.1 142.7,426.4C122.3,427.2 105.3,413.6 101.8,393.5C98.8,376.2 106.7,357.5 126.4,349.2C134.1,346 142,344.3 150.1,342.6C156.2,341.4 162.4,340.1 168.4,338.9C176.6,337.2 180.8,332 181.2,323.7L181.2,131C181.2,128.3 181.5,125.7 182.1,123.1C183.6,117 187.9,113.5 193.8,112.1C199.2,110.7 204.8,109.7 210.3,108.5C226,105.3 241.5,102.2 257.2,99.1L305.6,89.3C319.9,86.5 334.2,83.6 348.5,80.7C353.2,79.8 357.9,78.8 362.7,78.4C369.3,77.8 373.9,82 374.5,88.7C374.7,90.3 374.8,91.9 374.8,93.4Z"
          style="fill:currentColor;fill-rule:nonzero;"/>
    </g>
</svg>
